<svg width="22" height="23" viewBox="0 0 22 23" fill="none" xmlns="http://www.w3.org/2000/svg">
<path d="M13.9846 11.2438C14.7514 10.5895 15.2993 9.71571 15.5541 8.74034C15.809 7.76497 15.7587 6.7349 15.41 5.789C15.0613 4.8431 14.431 4.02686 13.604 3.45033C12.777 2.8738 11.7931 2.5647 10.785 2.5647C9.77683 2.5647 8.79294 2.8738 7.96594 3.45033C7.13894 4.02686 6.50859 4.8431 6.15989 5.789C5.81118 6.7349 5.76088 7.76497 6.01576 8.74034C6.27065 9.71571 6.81847 10.5895 7.58536 11.2438C5.8917 11.8911 4.43419 13.0369 3.40529 14.5298C2.3764 16.0228 1.82451 17.7927 1.82251 19.6058C1.82251 19.8435 1.91694 20.0715 2.08501 20.2396C2.25309 20.4076 2.48106 20.5021 2.71875 20.5021C2.95645 20.5021 3.18442 20.4076 3.3525 20.2396C3.52057 20.0715 3.615 19.8435 3.615 19.6058C3.615 17.7042 4.3704 15.8805 5.71503 14.5359C7.05966 13.1913 8.88337 12.4359 10.785 12.4359C12.6865 12.4359 14.5103 13.1913 15.8549 14.5359C17.1995 15.8805 17.9549 17.7042 17.9549 19.6058C17.9549 19.8435 18.0493 20.0715 18.2174 20.2396C18.3855 20.4076 18.6135 20.5021 18.8512 20.5021C19.0889 20.5021 19.3168 20.4076 19.4849 20.2396C19.653 20.0715 19.7474 19.8435 19.7474 19.6058C19.7454 17.7927 19.1935 16.0228 18.1646 14.5298C17.1357 13.0369 15.6782 11.8911 13.9846 11.2438ZM10.785 10.6434C10.1645 10.6434 9.55807 10.4594 9.04221 10.1147C8.52636 9.77003 8.1243 9.28012 7.88688 8.70693C7.64946 8.13375 7.58734 7.50303 7.70837 6.89454C7.82941 6.28605 8.12817 5.72711 8.56686 5.28842C9.00556 4.84972 9.5645 4.55096 10.173 4.42993C10.7815 4.30889 11.4122 4.37101 11.9854 4.60843C12.5586 4.84585 13.0485 5.24791 13.3932 5.76377C13.7378 6.27962 13.9218 6.8861 13.9218 7.50651C13.9218 8.33846 13.5913 9.13633 13.003 9.7246C12.4148 10.3129 11.6169 10.6434 10.785 10.6434Z" fill="#464255"/>
</svg>
