<svg width="22" height="23" viewBox="0 0 22 23" fill="none" xmlns="http://www.w3.org/2000/svg">
<path d="M18.8514 17.5616H4.51148V3.22168C4.51148 2.98399 4.41706 2.75602 4.24898 2.58794C4.0809 2.41986 3.85294 2.32544 3.61524 2.32544C3.37754 2.32544 3.14958 2.41986 2.9815 2.58794C2.81342 2.75602 2.71899 2.98399 2.71899 3.22168V18.4578C2.71899 18.6955 2.81342 18.9235 2.9815 19.0916C3.14958 19.2597 3.37754 19.3541 3.61524 19.3541H18.8514C19.0891 19.3541 19.3171 19.2597 19.4851 19.0916C19.6532 18.9235 19.7476 18.6955 19.7476 18.4578C19.7476 18.2201 19.6532 17.9922 19.4851 17.8241C19.3171 17.656 19.0891 17.5616 18.8514 17.5616Z" fill="#464255"/>
<path d="M6.30396 10.3916V14.8728C6.30396 15.1105 6.39838 15.3385 6.56646 15.5066C6.73454 15.6746 6.9625 15.7691 7.2002 15.7691C7.4379 15.7691 7.66586 15.6746 7.83394 15.5066C8.00202 15.3385 8.09644 15.1105 8.09644 14.8728V10.3916C8.09644 10.1539 8.00202 9.92594 7.83394 9.75787C7.66586 9.58979 7.4379 9.49536 7.2002 9.49536C6.9625 9.49536 6.73454 9.58979 6.56646 9.75787C6.39838 9.92594 6.30396 10.1539 6.30396 10.3916Z" fill="#464255"/>
<path d="M9.88916 5.9104V14.8728C9.88916 15.1105 9.98359 15.3385 10.1517 15.5066C10.3197 15.6747 10.5477 15.7691 10.7854 15.7691C11.0231 15.7691 11.2511 15.6747 11.4191 15.5066C11.5872 15.3385 11.6817 15.1105 11.6817 14.8728V5.9104C11.6817 5.67271 11.5872 5.44474 11.4191 5.27666C11.2511 5.10859 11.0231 5.01416 10.7854 5.01416C10.5477 5.01416 10.3197 5.10859 10.1517 5.27666C9.98359 5.44474 9.88916 5.67271 9.88916 5.9104Z" fill="#464255"/>
<path d="M13.4739 7.70288V14.8728C13.4739 15.1105 13.5683 15.3385 13.7364 15.5066C13.9045 15.6747 14.1324 15.7691 14.3701 15.7691C14.6078 15.7691 14.8358 15.6747 15.0039 15.5066C15.1719 15.3385 15.2664 15.1105 15.2664 14.8728V7.70288C15.2664 7.46519 15.1719 7.23722 15.0039 7.06914C14.8358 6.90107 14.6078 6.80664 14.3701 6.80664C14.1324 6.80664 13.9045 6.90107 13.7364 7.06914C13.5683 7.23722 13.4739 7.46519 13.4739 7.70288Z" fill="#464255"/>
<path d="M17.0588 3.22168V14.8729C17.0588 15.1106 17.1533 15.3385 17.3213 15.5066C17.4894 15.6747 17.7174 15.7691 17.9551 15.7691C18.1928 15.7691 18.4207 15.6747 18.5888 15.5066C18.7569 15.3385 18.8513 15.1106 18.8513 14.8729V3.22168C18.8513 2.98399 18.7569 2.75602 18.5888 2.58794C18.4207 2.41986 18.1928 2.32544 17.9551 2.32544C17.7174 2.32544 17.4894 2.41986 17.3213 2.58794C17.1533 2.75602 17.0588 2.98399 17.0588 3.22168V3.22168Z" fill="#464255"/>
</svg>
