<svg width="17" height="19" viewBox="0 0 17 19" fill="none" xmlns="http://www.w3.org/2000/svg">
<path d="M0.718994 6.87088V17.6258C0.718994 17.8635 0.81342 18.0915 0.981498 18.2596C1.14958 18.4276 1.37754 18.5221 1.61524 18.5221H6.09646C6.33416 18.5221 6.56212 18.4276 6.7302 18.2596C6.89828 18.0915 6.99271 17.8635 6.99271 17.6258V11.3521H10.5777V17.6258C10.5777 17.8635 10.6721 18.0915 10.8402 18.2596C11.0083 18.4276 11.2362 18.5221 11.4739 18.5221H15.9552C16.1928 18.5221 16.4208 18.4276 16.5889 18.2596C16.757 18.0915 16.8514 17.8635 16.8514 17.6258V6.87088C16.8514 6.73174 16.819 6.59452 16.7568 6.47007C16.6946 6.34562 16.6042 6.23737 16.4929 6.15388L9.32294 0.776417C9.1678 0.660065 8.97911 0.597168 8.78519 0.597168C8.59127 0.597168 8.40258 0.660065 8.24745 0.776417L1.07749 6.15388C0.966182 6.23737 0.875837 6.34562 0.813613 6.47007C0.751389 6.59452 0.718994 6.73174 0.718994 6.87088V6.87088ZM2.51148 7.319L8.78519 2.61372L15.0589 7.319V16.7296H12.3702V10.4559C12.3702 10.2182 12.2757 9.9902 12.1077 9.82212C11.9396 9.65404 11.7116 9.55962 11.4739 9.55962H6.09646C5.85876 9.55962 5.6308 9.65404 5.46272 9.82212C5.29464 9.9902 5.20022 10.2182 5.20022 10.4559V16.7296H2.51148V7.319Z" fill="#464255"/>
</svg>
