<?xml version="1.0" standalone="no"?>
<!DOCTYPE svg PUBLIC "-//W3C//DTD SVG 20010904//EN"
 "http://www.w3.org/TR/2001/REC-SVG-20010904/DTD/svg10.dtd">
<svg version="1.0" xmlns="http://www.w3.org/2000/svg"
 width="512.000000pt" height="512.000000pt" viewBox="0 0 512.000000 512.000000"
 preserveAspectRatio="xMidYMid meet">

<g transform="translate(0.000000,512.000000) scale(0.100000,-0.100000)"
fill="#000000" stroke="none">
<path d="M3500 4462 c-36 -9 -87 -30 -115 -46 -74 -42 -2539 -2505 -2604
-2602 -62 -92 -105 -197 -126 -305 -13 -71 -15 -147 -13 -426 l3 -340 29 -37
c51 -67 55 -68 460 -64 386 5 399 6 538 62 140 57 122 40 1439 1354 899 897
1275 1280 1300 1319 63 105 83 238 54 361 -31 130 -81 196 -352 463 -164 161
-199 191 -263 222 -120 59 -228 71 -350 39z m187 -312 c37 -14 441 -416 459
-457 18 -42 18 -85 -1 -131 -10 -24 -104 -125 -273 -295 l-257 -257 -297 297
c-164 164 -298 302 -298 308 0 16 501 511 535 529 35 18 92 20 132 6z m-594
-1068 l297 -297 -867 -866 c-839 -837 -871 -868 -943 -903 -103 -49 -149 -56
-401 -56 l-219 0 0 219 c0 245 7 294 52 395 31 69 58 98 897 939 476 477 870
867 876 867 6 0 144 -134 308 -298z"/>
<path d="M2495 946 c-66 -29 -105 -106 -91 -179 9 -47 60 -104 104 -117 25 -8
299 -10 874 -8 827 3 837 3 864 24 44 32 66 68 71 116 7 58 -15 108 -63 144
l-37 29 -846 2 c-688 2 -852 0 -876 -11z"/>
</g>
</svg>
