<svg width="24" height="24" viewBox="0 0 24 24" fill="none" xmlns="http://www.w3.org/2000/svg">
<path d="M6.73879 11.963V15.7964C6.73879 16.0505 6.83975 16.2943 7.01948 16.474C7.1992 16.6537 7.44295 16.7547 7.69712 16.7547H11.5305C11.6566 16.7554 11.7816 16.7313 11.8984 16.6836C12.0151 16.6359 12.1213 16.5656 12.2109 16.4768L19.1971 9.50012C19.8093 8.87962 20.1525 8.04302 20.1525 7.17137C20.1525 6.29972 19.8093 5.46312 19.1971 4.84262L18.6509 4.29637C18.0212 3.70197 17.188 3.37085 16.3221 3.37085C15.4562 3.37085 14.6231 3.70197 13.9934 4.29637L7.0167 11.2826C6.92788 11.3722 6.85761 11.4784 6.80992 11.5951C6.76223 11.7119 6.73806 11.8369 6.73879 11.963ZM8.65545 12.356L15.3638 5.64762C15.6233 5.4037 15.966 5.2679 16.3221 5.2679C16.6782 5.2679 17.021 5.4037 17.2805 5.64762L17.8171 6.18429C18.0699 6.43917 18.2118 6.78362 18.2118 7.14262C18.2118 7.50162 18.0699 7.84608 17.8171 8.10096L11.1088 14.8093H8.65545V12.356Z" fill="#464255"/>
<path d="M19.1969 11.9629C18.9428 11.9629 18.699 12.0639 18.5193 12.2436C18.3396 12.4233 18.2386 12.6671 18.2386 12.9212V17.7129C18.2386 17.9671 18.1376 18.2108 17.9579 18.3905C17.7782 18.5703 17.5344 18.6712 17.2803 18.6712H5.78027C5.52611 18.6712 5.28235 18.5703 5.10263 18.3905C4.92291 18.2108 4.82194 17.9671 4.82194 17.7129V6.21289C4.82194 5.95873 4.92291 5.71497 5.10263 5.53525C5.28235 5.35552 5.52611 5.25456 5.78027 5.25456H10.5719C10.8261 5.25456 11.0699 5.15359 11.2496 4.97387C11.4293 4.79415 11.5303 4.55039 11.5303 4.29622C11.5303 4.04206 11.4293 3.7983 11.2496 3.61858C11.0699 3.43886 10.8261 3.33789 10.5719 3.33789H5.78027C5.01778 3.33789 4.28651 3.64079 3.74734 4.17996C3.20817 4.71913 2.90527 5.45039 2.90527 6.21289V17.7129C2.90527 18.4754 3.20817 19.2067 3.74734 19.7458C4.28651 20.285 5.01778 20.5879 5.78027 20.5879H17.2803C18.0428 20.5879 18.774 20.285 19.3132 19.7458C19.8524 19.2067 20.1553 18.4754 20.1553 17.7129V12.9212C20.1553 12.6671 20.0543 12.4233 19.8746 12.2436C19.6949 12.0639 19.4511 11.9629 19.1969 11.9629Z" fill="#464255"/>
</svg>
