<svg width="22" height="22" viewBox="0 0 22 22" fill="none" xmlns="http://www.w3.org/2000/svg">
<path d="M2.71877 20.2155H6.30375C6.4217 20.2162 6.53863 20.1936 6.64782 20.149C6.75702 20.1044 6.85634 20.0386 6.94008 19.9556L17.695 9.20063C17.779 9.11732 17.8457 9.01819 17.8912 8.90898C17.9367 8.79976 17.9601 8.68262 17.9601 8.5643C17.9601 8.44599 17.9367 8.32884 17.8912 8.21963C17.8457 8.11041 17.779 8.01128 17.695 7.92797L14.11 4.34299C14.0267 4.25898 13.9276 4.19231 13.8184 4.14681C13.7092 4.10131 13.592 4.07788 13.4737 4.07788C13.3554 4.07788 13.2382 4.10131 13.129 4.14681C13.0198 4.19231 12.9207 4.25898 12.8374 4.34299L2.08244 15.0979C1.99937 15.1817 1.93365 15.281 1.88905 15.3902C1.84445 15.4994 1.82184 15.6163 1.82252 15.7343V19.3192C1.82252 19.5569 1.91695 19.7849 2.08503 19.953C2.25311 20.1211 2.48107 20.2155 2.71877 20.2155ZM3.61501 16.1017L13.4737 6.24303L15.795 8.5643L5.93629 18.423H3.61501V16.1017Z" fill="#464255"/>
<path d="M15.9029 2.55044C15.8194 2.46688 15.7202 2.40059 15.611 2.35537C15.5018 2.31014 15.3848 2.28687 15.2666 2.28687C15.0279 2.28687 14.799 2.38168 14.6303 2.55044C14.4615 2.71921 14.3667 2.94811 14.3667 3.18678C14.3667 3.42545 14.4615 3.65434 14.6303 3.82311L18.2153 7.40809C18.2986 7.49209 18.3977 7.55877 18.5069 7.60427C18.6161 7.64977 18.7333 7.6732 18.8516 7.6732C18.9699 7.6732 19.087 7.64977 19.1963 7.60427C19.3055 7.55877 19.4046 7.49209 19.4879 7.40809C19.5719 7.32477 19.6386 7.22565 19.6841 7.11643C19.7296 7.00722 19.753 6.89007 19.753 6.77176C19.753 6.65344 19.7296 6.5363 19.6841 6.42708C19.6386 6.31787 19.5719 6.21874 19.4879 6.13542L15.9029 2.55044Z" fill="#464255"/>
</svg>
