<svg width="22" height="23" viewBox="0 0 22 23" fill="none" xmlns="http://www.w3.org/2000/svg">
<path d="M11.368 2.86207C11.2056 2.72324 10.9991 2.64696 10.7854 2.64697H4.51172C4.27402 2.64697 4.04606 2.7414 3.87798 2.90948C3.7099 3.07756 3.61548 3.30552 3.61548 3.54322V19.6756C3.61548 19.9133 3.7099 20.1413 3.87798 20.3094C4.04606 20.4774 4.27402 20.5719 4.51172 20.5719H17.0591C17.2968 20.5719 17.5248 20.4774 17.6929 20.3094C17.861 20.1413 17.9554 19.9133 17.9554 19.6756V8.92069C17.9554 8.79123 17.9274 8.66331 17.8732 8.54573C17.8191 8.42814 17.7401 8.32368 17.6417 8.23954L11.368 2.86207ZM11.6817 5.48807L14.6393 8.02444H11.6817V5.48807ZM16.1629 18.7794H5.40797V4.43946H9.88919V8.92069C9.88919 9.15838 9.98362 9.38635 10.1517 9.55443C10.3198 9.7225 10.5477 9.81693 10.7854 9.81693H16.1629V18.7794Z" fill="#464255"/>
</svg>
