<svg width="22" height="22" viewBox="0 0 22 22" fill="none" xmlns="http://www.w3.org/2000/svg">
<path d="M17.229 15.1176C17.6943 14.5621 17.9511 13.8615 17.9549 13.1369C17.9549 12.3049 17.6244 11.5071 17.0361 10.9188C16.4479 10.3305 15.65 10 14.8181 10H14.5671C15.3062 9.12171 15.7124 8.01112 15.7143 6.86318C15.7164 6.03555 15.5101 5.2207 15.1143 4.4938C14.7186 3.7669 14.1462 3.15134 13.45 2.70389C12.7537 2.25643 11.956 1.9915 11.1304 1.9335C10.3048 1.87551 9.47784 2.02633 8.72587 2.37206C7.97389 2.71778 7.32107 3.24728 6.82761 3.91173C6.33415 4.57617 6.01593 5.35417 5.9023 6.17397C5.78868 6.99378 5.88329 7.82899 6.17744 8.6026C6.47158 9.37621 6.95577 10.0633 7.58536 10.6005C5.8917 11.2478 4.43419 12.3936 3.40529 13.8865C2.3764 15.3794 1.82451 17.1493 1.82251 18.9625C1.82251 19.2002 1.91694 19.4281 2.08501 19.5962C2.25309 19.7643 2.48106 19.8587 2.71875 19.8587C2.95645 19.8587 3.18442 19.7643 3.3525 19.5962C3.52057 19.4281 3.615 19.2002 3.615 18.9625C3.615 17.0609 4.3704 15.2372 5.71503 13.8926C7.05966 12.5479 8.88337 11.7925 10.785 11.7925H11.9949C11.7324 12.3267 11.6315 12.9259 11.7048 13.5166C11.778 14.1073 12.0221 14.6637 12.4072 15.1176C11.6436 15.5447 11.0078 16.1676 10.5651 16.9222C10.1224 17.6768 9.88894 18.5358 9.88871 19.4106C9.88871 19.6483 9.98314 19.8763 10.1512 20.0443C10.3193 20.2124 10.5473 20.3069 10.785 20.3069C11.0227 20.3069 11.2506 20.2124 11.4187 20.0443C11.5868 19.8763 11.6812 19.6483 11.6812 19.4106C11.6812 18.5787 12.0117 17.7808 12.6 17.1925C13.1882 16.6042 13.9861 16.2738 14.8181 16.2738C15.65 16.2738 16.4479 16.6042 17.0361 17.1925C17.6244 17.7808 17.9549 18.5787 17.9549 19.4106C17.9549 19.6483 18.0493 19.8763 18.2174 20.0443C18.3855 20.2124 18.6135 20.3069 18.8512 20.3069C19.0889 20.3069 19.3168 20.2124 19.4849 20.0443C19.653 19.8763 19.7474 19.6483 19.7474 19.4106C19.7472 18.5358 19.5137 17.6768 19.071 16.9222C18.6283 16.1676 17.9925 15.5447 17.229 15.1176ZM10.785 10C10.1645 10 9.55807 9.81607 9.04221 9.47139C8.52636 9.1267 8.1243 8.63679 7.88688 8.06361C7.64946 7.49042 7.58734 6.85971 7.70837 6.25121C7.82941 5.64272 8.12817 5.08379 8.56686 4.64509C9.00556 4.2064 9.5645 3.90764 10.173 3.7866C10.7815 3.66557 11.4122 3.72769 11.9854 3.96511C12.5586 4.20253 13.0485 4.60459 13.3932 5.12044C13.7378 5.6363 13.9218 6.24277 13.9218 6.86318C13.9218 7.69513 13.5913 8.493 13.003 9.08128C12.4148 9.66955 11.6169 10 10.785 10ZM14.8181 14.4813C14.4615 14.4813 14.1196 14.3396 13.8674 14.0875C13.6153 13.8354 13.4737 13.4934 13.4737 13.1369C13.476 12.7811 13.6184 12.4405 13.87 12.1889C14.1217 11.9373 14.4622 11.7949 14.8181 11.7925C15.1746 11.7925 15.5166 11.9342 15.7687 12.1863C16.0208 12.4384 16.1624 12.7803 16.1624 13.1369C16.1624 13.4934 16.0208 13.8354 15.7687 14.0875C15.5166 14.3396 15.1746 14.4813 14.8181 14.4813Z" fill="#464255"/>
</svg>
